<?xml version="1.0" standalone="no"?>

<svg version="1.0" xmlns="http://www.w3.org/2000/svg"
 width="10pt" height="10pt" viewBox="0 0 980.000000 674.000000"
 preserveAspectRatio="xMidYMid meet">

<g transform="translate(0.000000,674.000000) scale(0.100000,-0.100000)"
fill="#ffffff" stroke="none">
<path d="M8695 6727 c-127 -43 -239 -129 -480 -371 -217 -219 -427 -426 -1705
-1686 -790 -779 -1247 -1230 -1890 -1866 -439 -434 -616 -606 -625 -606 -9 0
-188 174 -665 646 -2154 2129 -2049 2027 -2120 2065 -113 61 -252 55 -393 -16
-38 -19 -87 -47 -110 -64 -23 -16 -176 -163 -340 -327 -250 -250 -303 -307
-328 -359 -67 -135 -46 -279 66 -453 44 -69 109 -139 265 -284 93 -87 335
-325 1290 -1271 405 -401 847 -837 1905 -1877 157 -154 201 -192 254 -217 147
-69 299 -42 466 84 32 24 253 237 490 472 523 520 967 960 1950 1928 413 407
928 915 1145 1130 217 214 566 559 775 765 1060 1046 1084 1071 1116 1136 89
180 12 413 -205 614 -39 36 -154 148 -256 250 -190 190 -262 247 -362 287 -71
29 -187 38 -243 20z"/>
</g>
</svg>
